<svg width="100" height="100" viewBox="0 0 100 100" fill="none" xmlns="http://www.w3.org/2000/svg">
<path d="M50 0L93.3013 25V75L50 100L6.69873 75V25L50 0Z" fill="url(#paint0_linear_2_12)"/>
<path d="M66.43 53V46.94L65.3 47.19V46.61L66.71 46H67.28V53H66.43ZM68.9976 53.05C68.8309 53.05 68.6909 52.9967 68.5776 52.89C68.4709 52.7767 68.4176 52.64 68.4176 52.48C68.4176 52.32 68.4709 52.1867 68.5776 52.08C68.6909 51.9667 68.8309 51.91 68.9976 51.91C69.1576 51.91 69.2909 51.9667 69.3976 52.08C69.5109 52.1867 69.5676 52.32 69.5676 52.48C69.5676 52.64 69.5109 52.7767 69.3976 52.89C69.2909 52.9967 69.1576 53.05 68.9976 53.05ZM71.1663 53V46.94L70.0363 47.19V46.61L71.4463 46H72.0163V53H71.1663ZM73.3839 53V52.41C73.8572 52.0367 74.3039 51.66 74.7239 51.28C75.1506 50.8933 75.5272 50.5133 75.8539 50.14C76.1872 49.7667 76.4472 49.4 76.6339 49.04C76.8272 48.68 76.9239 48.3333 76.9239 48C76.9239 47.7533 76.8806 47.5233 76.7939 47.31C76.7139 47.0967 76.5806 46.9267 76.3939 46.8C76.2072 46.6667 75.9539 46.6 75.6339 46.6C75.3272 46.6 75.0706 46.67 74.8639 46.81C74.6572 46.9433 74.5006 47.1233 74.3939 47.35C74.2939 47.5767 74.2439 47.82 74.2439 48.08H73.4339C73.4339 47.62 73.5306 47.2267 73.7239 46.9C73.9172 46.5667 74.1806 46.3133 74.5139 46.14C74.8472 45.9667 75.2239 45.88 75.6439 45.88C76.2639 45.88 76.7706 46.0567 77.1639 46.41C77.5639 46.7567 77.7639 47.2767 77.7639 47.97C77.7639 48.3833 77.6606 48.7933 77.4539 49.2C77.2472 49.6 76.9839 49.99 76.6639 50.37C76.3439 50.7433 76.0006 51.0933 75.6339 51.42C75.2739 51.7467 74.9372 52.04 74.6239 52.3H78.0039V53H73.3839Z" fill="white"/>
<rect x="37" y="54.1" width="56" height="4.17" fill="white"/>
<path d="M30.92 70L47.432 25.2H53.128L69.576 70H63.88L59.784 58.48H40.712L36.552 70H30.92ZM42.312 54.128H58.184L50.248 31.984L42.312 54.128Z" fill="white"/>
<defs>
<linearGradient id="paint0_linear_2_12" x1="50" y1="0" x2="50" y2="100" gradientUnits="userSpaceOnUse">
<stop stop-color="#EE3333"/>
<stop offset="1" stop-color="#7D0000"/>
</linearGradient>
</defs>
</svg>
